<svg width="30" height="30" viewBox="0 0 30 30" fill="none" xmlns="http://www.w3.org/2000/svg">
<path fill-rule="evenodd" clip-rule="evenodd" d="M18.9006 14.73C18.9006 12.7243 17.2596 11.0833 15.2539 11.0833C13.2482 11.0833 11.6072 12.7243 11.6072 14.73C11.6072 16.7356 13.2482 18.3766 15.2539 18.3766C17.2596 18.3766 18.9006 16.7356 18.9006 14.73ZM10.9995 14.73C10.9995 12.39 12.914 10.4755 15.2539 10.4755C17.5938 10.4755 19.5083 12.39 19.5083 14.73C19.5083 17.0699 17.5938 18.9844 15.2539 18.9844C12.914 18.9844 10.9995 17.0699 10.9995 14.73ZM15.5578 14.4261H17.685V15.0338H15.5578V17.1611H14.95V15.0338H12.8228V14.4261H14.95V12.2988H15.5578V14.4261Z" fill="white" fill-opacity="0.24"/>
<rect x="0.971118" y="0.447199" width="28.5656" height="28.5656" rx="14.2828" stroke="white" stroke-opacity="0.24" stroke-width="0.607778"/>
</svg>
