<svg width="11" height="11" viewBox="0 0 11 11" fill="none" xmlns="http://www.w3.org/2000/svg">
<path fill-rule="evenodd" clip-rule="evenodd" d="M9.00443 5.50676C9.00443 3.5011 7.36343 1.8601 5.35776 1.8601C3.3521 1.8601 1.7111 3.5011 1.7111 5.50676C1.7111 7.51243 3.3521 9.15343 5.35776 9.15343C7.36343 9.15343 9.00443 7.51243 9.00443 5.50676ZM1.10332 5.50676C1.10332 3.16682 3.01782 1.25232 5.35776 1.25232C7.69771 1.25232 9.61221 3.16682 9.61221 5.50676C9.61221 7.84671 7.69771 9.76121 5.35776 9.76121C3.01782 9.76121 1.10332 7.84671 1.10332 5.50676ZM5.66166 5.20286H7.78888V5.81064H5.66166V7.93786H5.05388V5.81064H2.92666V5.20286H5.05388V3.07564H5.66166V5.20286Z" fill="white"/>
</svg>
