<svg width="11" height="11" viewBox="0 0 11 11" fill="none" xmlns="http://www.w3.org/2000/svg">
<path fill-rule="evenodd" clip-rule="evenodd" d="M1.48003 6.00889H2.08781V1.75445H6.34225V1.14667H2.08781C1.92662 1.14667 1.77203 1.2107 1.65804 1.32468C1.54406 1.43866 1.48003 1.59325 1.48003 1.75445V6.00889ZM9.38114 9.04777V3.57777H3.91114V9.04777H9.38114ZM3.91114 2.96999H9.38114C9.54233 2.96999 9.69693 3.03402 9.81091 3.148C9.92489 3.26199 9.98892 3.41658 9.98892 3.57777V9.04777C9.98892 9.20896 9.92489 9.36355 9.81091 9.47753C9.69693 9.59151 9.54233 9.65555 9.38114 9.65555H3.91114C3.74995 9.65555 3.59536 9.59151 3.48138 9.47753C3.3674 9.36355 3.30336 9.20896 3.30336 9.04777V3.57777C3.30336 3.41658 3.3674 3.26199 3.48138 3.148C3.59536 3.03402 3.74995 2.96999 3.91114 2.96999Z" fill="white" fill-opacity="0.24"/>
</svg>
