<svg width="28" height="27" viewBox="0 0 28 27" fill="none" xmlns="http://www.w3.org/2000/svg">
<path d="M14.3342 18.269L13.5411 17.5695C10.724 15.0946 8.86424 13.4624 8.86424 11.4592C8.86424 9.82702 10.188 8.54456 11.8727 8.54456C12.8245 8.54456 13.738 8.97381 14.3342 9.65214C14.9305 8.97381 15.844 8.54456 16.7957 8.54456C18.4805 8.54456 19.8042 9.82702 19.8042 11.4592C19.8042 13.4624 17.9444 15.0946 15.1274 17.5748L14.3342 18.269Z" fill="#099254"/>
<rect x="0.354416" y="0.0357056" width="26.7422" height="26.7422" rx="6.07778" fill="#2F2F2F"/>
<path fill-rule="evenodd" clip-rule="evenodd" d="M12.3452 10.5458V11.9705H11.2944V13.7107H12.3452V18.8768H14.5062V13.7107H15.9551C15.9551 13.7107 16.0907 12.8765 16.1566 11.9646H14.5143V10.7742C14.5564 10.5432 14.7498 10.371 14.9827 10.3571H16.1566V8.54459H14.5575C12.2917 8.54459 12.3452 10.2847 12.3452 10.5458Z" fill="white"/>
</svg>
