<svg width="28" height="27" viewBox="0 0 28 27" fill="none" xmlns="http://www.w3.org/2000/svg">
<path d="M14.8649 18.269L14.0717 17.5695C11.2547 15.0947 9.39487 13.4625 9.39487 11.4593C9.39487 9.82705 10.7186 8.54459 12.4034 8.54459C13.3551 8.54459 14.2686 8.97384 14.8649 9.65217C15.4611 8.97384 16.3746 8.54459 17.3264 8.54459C19.0111 8.54459 20.3349 9.82705 20.3349 11.4593C20.3349 13.4625 18.4751 15.0947 15.658 17.5748L14.8649 18.269Z" fill="#099254"/>
<rect x="0.887756" y="0.0357056" width="26.7422" height="26.7422" rx="6.07778" fill="#2F2F2F"/>
<path fill-rule="evenodd" clip-rule="evenodd" d="M12.2068 7.93686H16.3094C18.1972 7.93686 19.7282 9.46778 19.7282 11.3556V15.4581C19.7282 17.3459 18.1972 18.8769 16.3094 18.8769H12.2068C10.3189 18.8769 8.78798 17.3459 8.78798 15.4581V11.3556C8.78798 9.46778 10.3189 7.93686 12.2068 7.93686ZM16.309 17.8513C17.6286 17.8513 18.7021 16.7778 18.7021 15.4581V11.3556C18.7021 10.036 17.6286 8.96252 16.309 8.96252H12.2065C10.8869 8.96252 9.81343 10.036 9.81343 11.3556V15.4581C9.81343 16.7778 10.8869 17.8513 12.2065 17.8513H16.309Z" fill="white"/>
<path fill-rule="evenodd" clip-rule="evenodd" d="M11.2189 13.4069C11.2189 11.7287 12.5796 10.368 14.2578 10.368C15.936 10.368 17.2967 11.7287 17.2967 13.4069C17.2967 15.0851 15.936 16.4458 14.2578 16.4458C12.5796 16.4458 11.2189 15.0851 11.2189 13.4069ZM12.3578 13.4057C12.3578 14.4525 13.2102 15.3049 14.2571 15.3049C15.304 15.3049 16.1564 14.4525 16.1564 13.4057C16.1564 12.358 15.304 11.5064 14.2571 11.5064C13.2102 11.5064 12.3578 12.358 12.3578 13.4057Z" fill="white"/>
<path d="M16.8899 10.7732C17.1137 10.7732 17.2951 10.5919 17.2951 10.3682C17.2951 10.1445 17.1137 9.96323 16.8899 9.96323C16.6661 9.96323 16.4847 10.1445 16.4847 10.3682C16.4847 10.5919 16.6661 10.7732 16.8899 10.7732Z" fill="white"/>
</svg>
