<svg width="28" height="27" viewBox="0 0 28 27" fill="none" xmlns="http://www.w3.org/2000/svg">
<path d="M13.7923 18.269L12.9991 17.5695C10.1821 15.0947 8.32227 13.4625 8.32227 11.4593C8.32227 9.82705 9.64601 8.54459 11.3308 8.54459C12.2825 8.54459 13.196 8.97384 13.7923 9.65217C14.3885 8.97384 15.302 8.54459 16.2538 8.54459C17.9385 8.54459 19.2623 9.82705 19.2623 11.4593C19.2623 13.4625 17.4025 15.0947 14.5854 17.5748L13.7923 18.269Z" fill="#099254"/>
<rect x="0.421082" y="0.0357056" width="26.7422" height="26.7422" rx="6.07778" fill="#2F2F2F"/>
<path d="M12.6141 14.5532L12.4331 17.0985C12.692 17.0985 12.8042 16.9873 12.9386 16.8538L14.1525 15.6937L16.6678 17.5357C17.1291 17.7928 17.4541 17.6574 17.5786 17.1113L19.2296 9.3749L19.2301 9.37445C19.3764 8.69252 18.9834 8.42586 18.534 8.59315L8.82931 12.3086C8.16698 12.5657 8.17701 12.935 8.71671 13.1023L11.1978 13.874L16.9609 10.2679C17.2321 10.0883 17.4787 10.1877 17.2759 10.3673L12.6141 14.5532Z" fill="white"/>
</svg>
