<svg width="11" height="11" viewBox="0 0 11 11" fill="none" xmlns="http://www.w3.org/2000/svg">
<path d="M10.5182 10.0549L7.64945 7.18617C8.33879 6.35859 8.68254 5.29711 8.60918 4.22254C8.53582 3.14797 8.05101 2.14305 7.2556 1.41683C6.46018 0.690609 5.41541 0.299 4.33862 0.323469C3.26183 0.347938 2.23592 0.786601 1.47432 1.5482C0.712718 2.30981 0.274055 3.33571 0.249586 4.4125C0.225117 5.4893 0.616725 6.53407 1.34295 7.32948C2.06917 8.12489 3.07409 8.6097 4.14866 8.68306C5.22323 8.75642 6.28471 8.41267 7.11229 7.72333L9.98104 10.5921L10.5182 10.0549ZM1.02167 4.5143C1.02167 3.83814 1.22218 3.17716 1.59783 2.61495C1.97349 2.05274 2.50743 1.61455 3.13212 1.35579C3.75682 1.09703 4.44421 1.02933 5.10739 1.16124C5.77056 1.29316 6.37972 1.61876 6.85784 2.09688C7.33596 2.575 7.66157 3.18417 7.79348 3.84734C7.92539 4.51051 7.85769 5.19791 7.59893 5.8226C7.34018 6.4473 6.90199 6.98123 6.33978 7.35689C5.77757 7.73255 5.11659 7.93305 4.44042 7.93305C3.53402 7.93205 2.66503 7.57154 2.02411 6.93061C1.38319 6.28969 1.02268 5.4207 1.02167 4.5143V4.5143Z" fill="white" fill-opacity="0.12"/>
</svg>
