<svg width="28" height="27" viewBox="0 0 28 27" fill="none" xmlns="http://www.w3.org/2000/svg">
<path d="M14.8007 18.269L14.0076 17.5695C11.1905 15.0946 9.33075 13.4624 9.33075 11.4592C9.33075 9.82702 10.6545 8.54456 12.3392 8.54456C13.291 8.54456 14.2045 8.97381 14.8007 9.65214C15.397 8.97381 16.3105 8.54456 17.2622 8.54456C18.947 8.54456 20.2707 9.82702 20.2707 11.4592C20.2707 13.4624 18.4109 15.0946 15.5939 17.5748L14.8007 18.269Z" fill="#099254"/>
<rect x="0.821075" y="0.0357056" width="26.7422" height="26.7422" rx="6.07778" fill="#2F2F2F"/>
<path fill-rule="evenodd" clip-rule="evenodd" d="M19.0804 9.99445C19.5489 10.1206 19.9184 10.4901 20.0446 10.9587C20.2789 11.8147 20.2699 13.5991 20.2699 13.5991C20.2699 13.5991 20.2699 15.3743 20.0446 16.2304C19.9184 16.699 19.549 17.0685 19.0804 17.1946C18.2243 17.4199 14.7999 17.4199 14.7999 17.4199C14.7999 17.4199 11.3845 17.4199 10.5195 17.1856C10.0508 17.0594 9.68143 16.6899 9.55523 16.2214C9.32996 15.3743 9.32996 13.59 9.32996 13.59C9.32996 13.59 9.32996 11.8147 9.55523 10.9587C9.68134 10.4901 10.0599 10.1116 10.5194 9.98552C11.3755 9.76016 14.7998 9.76016 14.7998 9.76016C14.7998 9.76016 18.2243 9.76016 19.0804 9.99445ZM16.5577 13.59L13.7102 15.2301V11.9499L16.5577 13.59Z" fill="white"/>
</svg>
